<?xml version="1.0" encoding="UTF-8"?>
<svg width="1280" height="1280" version="1.1" viewBox="0 0 339 339" xmlns="http://www.w3.org/2000/svg"><rect width="339" height="339" fill="#131416"/><g fill="#3a2451" fill-rule="evenodd"><circle cx="41.9" cy="19.9" r="17.8"/><path d="m35.8 219c-3.04 0.745-4.89 3.79-4.15 6.84l3.98 16.2c0.745 3.04 3.8 4.89 6.84 4.15l1.94-0.476 1.49 6.1 4.6-7.59 21.3-5.21c3.04-0.745 4.89-3.8 4.15-6.84l-3.98-16.2c-0.745-3.04-3.8-4.89-6.84-4.15z"/><path d="m229 28.9c-2.6-1.08-5.55 0.148-6.63 2.74l-5.74 13.9c-1.08 2.6 0.149 5.55 2.74 6.63l1.66 0.687-2.16 5.2 7.36-3.05 18.2 7.52c2.6 1.08 5.55-0.149 6.63-2.74l5.74-13.9c1.08-2.6-0.149-5.55-2.74-6.63z"/><path d="m284 286-12.3-9.62-14.9 4.68 5.35-14.7-9.06-12.7 15.6 0.551 9.31-12.5 4.3 15 14.8 4.97-13 8.73z" stroke-width=".237"/><path d="m139 134-14.1-0.273-8.2 11.4-4.09-13.5-13.4-4.27 11.5-8.05-0.0865-14.1 11.2 8.49 13.4-4.43-4.61 13.3z" stroke-width=".214"/></g><path d="m281 192c-0.888-5.54 0.996-11.4 4.92-15.4 3.93-4 9.8-5.99 15.4-5.21 2.62 0.372 5.25 1.39 7.02 3.37 0.883 0.988 1.53 2.2 1.77 3.5s0.0769 2.69-0.543 3.86c-0.661 1.25-1.82 2.21-3.14 2.71-1.32 0.503-2.79 0.56-4.17 0.247s-2.66-0.985-3.76-1.87-2.02-1.98-2.79-3.17c-2.05-3.19-2.97-7.08-2.6-10.9 0.364-3.77 2-7.41 4.53-10.2 2.54-2.82 5.96-4.81 9.65-5.68 3.69-0.871 7.63-0.624 11.2 0.648 2.39 0.851 4.68 2.21 6.12 4.3 0.717 1.04 1.2 2.26 1.33 3.52 0.124 1.26-0.123 2.57-0.766 3.66-0.838 1.42-2.32 2.42-3.94 2.77-1.61 0.353-3.33 0.0869-4.82-0.626-1.49-0.713-2.75-1.86-3.72-3.2-0.965-1.34-1.64-2.87-2.1-4.46-0.927-3.16-1.02-6.57-0.266-9.78 0.754-3.21 2.35-6.22 4.59-8.64 2.24-2.42 5.11-4.25 8.26-5.25 3.14-1 6.54-1.17 9.77-0.496" fill="none" stroke="#3a2451" stroke-width=".794"/><circle cx="149" cy="311" r="12.4" fill="#3a2451" fill-rule="evenodd"/></svg>
