<?xml version="1.0" encoding="UTF-8"?>
<svg width="1280" height="1280" version="1.1" viewBox="0 0 338.67 338.67" xmlns="http://www.w3.org/2000/svg"><g><rect width="338.67" height="338.67" fill="#101010"/></g><g fill="#3e1e42" fill-rule="evenodd"><circle cx="41.887" cy="19.867" r="17.826"/><path d="m35.82 218.91c-3.0429 0.74531-4.8928 3.7949-4.1475 6.8378l3.976 16.233c0.7453 3.0429 3.7953 4.8927 6.8382 4.1474l1.9436-0.47606 1.4936 6.098 4.6047-7.5916 21.28-5.212c3.0429-0.74531 4.8928-3.7953 4.1475-6.8382l-3.976-16.233c-0.7453-3.0429-3.7952-4.8924-6.8381-4.1471z"/><path d="m229.46 28.925c-2.5963-1.0757-5.5526 0.14826-6.6282 2.7446l-5.7386 13.851c-1.0757 2.5963 0.14858 5.5527 2.7449 6.6284l1.6584 0.68709-2.1557 5.2029 7.3589-3.0471 18.157 7.5226c2.5963 1.0757 5.5527-0.14857 6.6284-2.7449l5.7386-13.851c1.0757-2.5963-0.1487-5.5524-2.745-6.6281z"/><path transform="matrix(.23741 0 0 .23741 74.08 130.61)" d="m884.59 654.76-51.84-40.535-62.78 19.725 22.531-61.829-38.16-53.612 65.765 2.3223 39.196-52.859 18.114 63.264 62.385 20.944-54.57 36.777z"/><path transform="matrix(.17095 -.1284 .1284 .17095 -96.723 135.75)" d="m884.59 654.76-51.84-40.535-62.78 19.725 22.531-61.829-38.16-53.612 65.765 2.3223 39.196-52.859 18.114 63.264 62.385 20.944-54.57 36.777z"/></g><path d="m281.02 192.2c-0.8881-5.5362 0.99613-11.448 4.9242-15.449 3.928-4.0011 9.8038-5.9939 15.355-5.2079 2.624 0.3715 5.2542 1.394 7.0212 3.3692 0.88349 0.9876 1.5287 2.2008 1.7736 3.503s0.0769 2.6916-0.54334 3.8626c-0.66121 1.2483-1.8177 2.2085-3.1379 2.7112-1.3202 0.50265-2.7924 0.55965-4.17 0.24692s-2.6614-0.98523-3.7621-1.8706-2.0228-1.98-2.7876-3.1677c-2.0526-3.1877-2.9668-7.0822-2.6024-10.856 0.36442-3.7738 1.9957-7.4058 4.5333-10.223 2.5375-2.817 5.9626-4.8114 9.6525-5.6829 3.6899-0.87147 7.6284-0.62435 11.2 0.64828 2.3874 0.85072 4.6812 2.2142 6.1156 4.3037 0.71721 1.0447 1.2026 2.2587 1.3267 3.5199 0.12406 1.2611-0.12341 2.5677-0.7665 3.6596-0.83794 1.4228-2.3241 2.4186-3.9372 2.7715-1.613 0.3529-3.3338 0.0869-4.8231-0.62588-1.4894-0.71282-2.7524-1.8555-3.7173-3.1955-0.96485-1.34-1.6403-2.8734-2.1047-4.4579-0.92747-3.1645-1.0202-6.5696-0.26625-9.7799 0.75391-3.2102 2.3527-6.2182 4.5918-8.639 2.2392-2.4208 5.1135-4.2489 8.2553-5.2505 3.1418-1.0015 6.5438-1.1742 9.7709-0.49592" fill="none" stroke="#3e1e42" stroke-width=".79375"/><circle cx="149.35" cy="311.07" r="12.418" fill="#3e1e42" fill-rule="evenodd"/></svg>
