<?xml version="1.0" encoding="UTF-8"?>
<svg width="64" height="64" version="1.1" viewBox="0 0 16.9 16.9" xmlns="http://www.w3.org/2000/svg" xmlns:xlink="http://www.w3.org/1999/xlink"><defs><linearGradient id="slsma" x1="4.58" x2="0" y1="2.71" y2="6.43" gradientTransform="matrix(3.33 0 0 3.33 0 -5.65)" gradientUnits="userSpaceOnUse"><stop stop-color="#9728e6" offset="0"/><stop stop-color="#eb7a4c" offset="1"/></linearGradient></defs><path d="m9.93 1.13c-1.4 0-2.64 0.299-3.72 0.898-1.08 0.599-1.92 1.45-2.51 2.57-0.599 1.11-0.898 2.4-0.898 3.87 0 4.9-2.79 7.34-2.79 7.34h9.93c1.69 0 3.12-0.435 4.29-1.31 1.16-0.89 1.95-2.02 2.36-3.39h-3.88c-0.565 1.15-1.51 1.72-2.85 1.72-0.924 0-1.7-0.291-2.34-0.873-0.633-0.582-0.992-1.39-1.08-2.41h10.4c0.0685-0.411 0.102-0.871 0.102-1.38 0-1.39-0.299-2.61-0.898-3.67-0.582-1.08-1.41-1.91-2.49-2.49-1.06-0.582-2.27-0.873-3.62-0.873zm-0.102 2.95c0.941 0 1.74 0.281 2.39 0.846 0.65 0.548 0.984 1.28 1 2.21h-6.75c0.137-0.958 0.506-1.7 1.1-2.23 0.616-0.548 1.37-0.821 2.26-0.821z" fill="url(#slsma)"/></svg>
