<?xml version="1.0" encoding="UTF-8"?>
<svg width="122" height="32" version="1.1" viewBox="0 0 32.2 8.47" xmlns="http://www.w3.org/2000/svg" xmlns:xlink="http://www.w3.org/1999/xlink"><defs><linearGradient id="linearGradient832" x1="4.58" x2="0" y1="2.71" y2="6.43" gradientUnits="userSpaceOnUse"><stop stop-color="#9728e6" offset="0"/><stop stop-color="#eb7a4c" offset="1"/></linearGradient></defs><g fill="#f7f7f7"><path d="m8.55 2.04q0.762 0 1.23 0.485 0.47 0.477 0.47 1.34v2.5h-1.08v-2.36q0-0.508-0.254-0.777-0.254-0.277-0.693-0.277-0.446 0-0.708 0.277-0.254 0.269-0.254 0.777v2.36h-1.08v-4.26h1.08v0.531q0.216-0.277 0.546-0.431 0.339-0.162 0.739-0.162z"/><path d="m13.3 2.03q0.477 0 0.839 0.192 0.362 0.185 0.57 0.485v-0.608h1.09v4.29q0 0.593-0.239 1.05-0.239 0.47-0.716 0.739-0.477 0.277-1.15 0.277-0.908 0-1.49-0.423-0.577-0.423-0.654-1.15h1.07q0.0847 0.292 0.362 0.462 0.285 0.177 0.685 0.177 0.47 0 0.762-0.285 0.292-0.277 0.292-0.847v-0.662q-0.208 0.3-0.577 0.5-0.362 0.2-0.831 0.2-0.539 0-0.985-0.277-0.446-0.277-0.708-0.777-0.254-0.508-0.254-1.16 0-0.647 0.254-1.15 0.262-0.5 0.7-0.77 0.446-0.269 0.993-0.269zm1.41 2.2q0-0.393-0.154-0.67-0.154-0.285-0.416-0.431-0.262-0.154-0.562-0.154t-0.554 0.146q-0.254 0.146-0.416 0.431-0.154 0.277-0.154 0.662 0 0.385 0.154 0.677 0.162 0.285 0.416 0.439 0.262 0.154 0.554 0.154 0.3 0 0.562-0.146 0.262-0.154 0.416-0.431 0.154-0.285 0.154-0.677z"/><path d="m16.9 4.22q0-0.647 0.254-1.15 0.262-0.5 0.7-0.77 0.446-0.269 0.993-0.269 0.477 0 0.831 0.192 0.362 0.192 0.577 0.485v-0.608h1.09v4.26h-1.09v-0.623q-0.208 0.3-0.577 0.5-0.362 0.192-0.839 0.192-0.539 0-0.985-0.277-0.439-0.277-0.7-0.777-0.254-0.508-0.254-1.16zm3.36 0.0154q0-0.393-0.154-0.67-0.154-0.285-0.416-0.431-0.262-0.154-0.562-0.154t-0.554 0.146q-0.254 0.146-0.416 0.431-0.154 0.277-0.154 0.662 0 0.385 0.154 0.677 0.162 0.285 0.416 0.439 0.262 0.154 0.554 0.154 0.3 0 0.562-0.146 0.262-0.154 0.416-0.431 0.154-0.285 0.154-0.677z"/><path d="m24.3 2.03q0.477 0 0.839 0.192 0.362 0.185 0.57 0.485v-0.608h1.09v4.29q0 0.593-0.239 1.05-0.239 0.47-0.716 0.739-0.477 0.277-1.15 0.277-0.908 0-1.49-0.423-0.577-0.423-0.654-1.15h1.07q0.0847 0.292 0.362 0.462 0.285 0.177 0.685 0.177 0.47 0 0.762-0.285 0.292-0.277 0.292-0.847v-0.662q-0.208 0.3-0.577 0.5-0.362 0.2-0.831 0.2-0.539 0-0.985-0.277-0.446-0.277-0.708-0.777-0.254-0.508-0.254-1.16 0-0.647 0.254-1.15 0.262-0.5 0.7-0.77 0.446-0.269 0.993-0.269zm1.41 2.2q0-0.393-0.154-0.67-0.154-0.285-0.416-0.431-0.262-0.154-0.562-0.154-0.3 0-0.554 0.146-0.254 0.146-0.416 0.431-0.154 0.277-0.154 0.662 0 0.385 0.154 0.677 0.162 0.285 0.416 0.439 0.262 0.154 0.554 0.154 0.3 0 0.562-0.146 0.262-0.154 0.416-0.431 0.154-0.285 0.154-0.677z"/><path d="m32.2 4.14q0 0.231-0.0308 0.416h-3.12q0.0385 0.462 0.323 0.724 0.285 0.262 0.7 0.262 0.6 0 0.854-0.516h1.16q-0.185 0.616-0.708 1.02-0.523 0.393-1.29 0.393-0.616 0-1.11-0.269-0.485-0.277-0.762-0.777-0.269-0.5-0.269-1.15 0-0.662 0.269-1.16 0.269-0.5 0.754-0.77 0.485-0.269 1.12-0.269 0.608 0 1.09 0.262 0.485 0.262 0.747 0.747 0.269 0.477 0.269 1.1zm-1.12-0.308q-0.00766-0.416-0.3-0.662-0.292-0.254-0.716-0.254-0.4 0-0.677 0.246-0.269 0.239-0.331 0.67z"/></g><path d="m2.98 2.03c-0.421 0-0.793 0.0897-1.12 0.269-0.323 0.18-0.575 0.436-0.754 0.77-0.18 0.334-0.269 0.721-0.269 1.16 0 1.47-0.837 2.2-0.837 2.2h2.98c0.508 0 0.936-0.13 1.29-0.392 0.349-0.267 0.585-0.605 0.708-1.02h-1.16c-0.169 0.344-0.454 0.516-0.854 0.516-0.277 0-0.51-0.0874-0.7-0.262-0.19-0.174-0.298-0.416-0.323-0.723h3.12c0.0205-0.123 0.0307-0.261 0.0307-0.415 0-0.416-0.0897-0.783-0.269-1.1-0.174-0.323-0.423-0.572-0.747-0.746-0.318-0.174-0.68-0.262-1.09-0.262zm-0.0307 0.885c0.282 0 0.521 0.0844 0.716 0.254 0.195 0.164 0.295 0.385 0.3 0.662h-2.02c0.0411-0.287 0.152-0.511 0.331-0.67 0.185-0.164 0.41-0.246 0.677-0.246z" fill="url(#linearGradient832)"/></svg>
