<?xml version="1.0" encoding="UTF-8" standalone="no"?>
<svg
   width="116.49546"
   height="32"
   version="1.1"
   viewBox="0 0 30.822606 8.466625"
   id="svg28"
   sodipodi:docname="logo-light.svg"
   inkscape:version="1.1.1 (3bf5ae0d25, 2021-09-20)"
   xmlns:inkscape="http://www.inkscape.org/namespaces/inkscape"
   xmlns:sodipodi="http://sodipodi.sourceforge.net/DTD/sodipodi-0.dtd"
   xmlns="http://www.w3.org/2000/svg"
   xmlns:svg="http://www.w3.org/2000/svg">
  <defs
     id="defs32" />
  <sodipodi:namedview
     id="namedview30"
     pagecolor="#505050"
     bordercolor="#eeeeee"
     borderopacity="1"
     inkscape:pageshadow="0"
     inkscape:pageopacity="0"
     inkscape:pagecheckerboard="0"
     showgrid="false"
     inkscape:snap-bbox="false"
     inkscape:bbox-nodes="true"
     inkscape:bbox-paths="false"
     inkscape:snap-smooth-nodes="true"
     inkscape:zoom="6.0345"
     inkscape:cx="38.859889"
     inkscape:cy="23.117077"
     inkscape:current-layer="svg28"
     inkscape:snap-page="true" />
  <path
     d="m 8.915265,2.3136487 q 0.6564972,0 1.0610055,0.4177708 Q 10.38078,3.1425591 10.38078,3.8852624 V 6.0404311 H 9.4523996 V 4.0112575 q 0,-0.4376649 -0.2188325,-0.6697599 -0.2188324,-0.2387264 -0.5968164,-0.2387264 -0.3846143,0 -0.6100781,0.2387264 -0.2188324,0.232095 -0.2188324,0.6697599 V 6.0404311 H 6.87946 V 2.3666981 H 7.8078402 V 2.8242569 Q 7.9935161,2.5855306 8.2786617,2.4529053 8.5704386,2.3136487 8.915265,2.3136487 Z"
     id="path93685"
     style="font-weight:600;font-size:6.34997px;font-family:Poppins;-inkscape-font-specification:'Poppins Semi-Bold';letter-spacing:0.264582px;fill:#000000;fill-opacity:1;stroke:none;stroke-width:0.26458203;stroke-miterlimit:4;stroke-dasharray:none" />
  <path
     d="m 12.978029,2.3070173 q 0.411139,0 0.72281,0.1657819 0.31167,0.1591506 0.490714,0.4177709 v -0.523872 h 0.935012 v 3.7002583 q 0,0.5106082 -0.20557,0.9084852 -0.20557,0.4045093 -0.616709,0.6366043 -0.41114,0.2387254 -0.994694,0.2387254 -0.782491,0 -1.286469,-0.3647204 -0.497347,-0.3647203 -0.563659,-0.9946923 h 0.921749 q 0.07294,0.251989 0.31167,0.3978769 0.245358,0.1525192 0.590184,0.1525192 0.404509,0 0.656497,-0.2453576 0.251989,-0.2387264 0.251989,-0.7294407 V 5.4966652 q -0.179044,0.2586203 -0.497345,0.4310335 -0.311671,0.1724132 -0.716179,0.1724132 -0.464191,0 -0.848805,-0.2387253 Q 11.744609,5.6226602 11.519145,5.1916267 11.300313,4.7539618 11.300313,4.190302 q 0,-0.5570275 0.218832,-0.988061 0.225464,-0.4310336 0.603448,-0.6631286 0.384614,-0.2320951 0.855436,-0.2320951 z m 1.213524,1.8965473 q 0,-0.3381951 -0.132625,-0.5769214 -0.132626,-0.2453577 -0.358089,-0.3713527 -0.225464,-0.1326253 -0.484084,-0.1326253 -0.25862,0 -0.477453,0.1259939 -0.218832,0.1259951 -0.358089,0.3713528 -0.132626,0.2387263 -0.132626,0.5702901 0,0.3315648 0.132626,0.5835528 0.139257,0.2453576 0.358089,0.377984 0.225464,0.1326253 0.477453,0.1326253 0.25862,0 0.484084,-0.125994 0.225463,-0.1326263 0.358089,-0.3713527 0.132625,-0.2453567 0.132625,-0.5835528 z"
     id="path93687"
     style="font-weight:600;font-size:6.34997px;font-family:Poppins;-inkscape-font-specification:'Poppins Semi-Bold';letter-spacing:0.264582px;fill:#000000;fill-opacity:1;stroke:none;stroke-width:0.26458203;stroke-miterlimit:4;stroke-dasharray:none" />
  <path
     d="m 16.072625,4.190302 q 0,-0.5570275 0.218833,-0.988061 0.225463,-0.4310336 0.603446,-0.6631286 0.384615,-0.2320951 0.855436,-0.2320951 0.41114,0 0.716179,0.1657819 0.311671,0.1657819 0.497347,0.4177709 v -0.523872 h 0.935011 v 3.673733 H 18.963866 V 5.5032965 q -0.179045,0.2586203 -0.497347,0.4310335 -0.31167,0.1657819 -0.72281,0.1657819 -0.46419,0 -0.848805,-0.2387253 Q 16.516921,5.6226602 16.291458,5.1916267 16.072625,4.7539618 16.072625,4.190302 Z m 2.891241,0.013263 q 0,-0.3381951 -0.132627,-0.5769214 Q 18.698614,3.3812855 18.47315,3.2552905 18.247687,3.1226652 17.989066,3.1226652 q -0.25862,0 -0.477452,0.1259939 -0.218833,0.1259951 -0.358089,0.3713528 -0.132626,0.2387263 -0.132626,0.5702901 0,0.3315648 0.132626,0.5835528 0.139256,0.2453576 0.358089,0.377984 0.225463,0.1326253 0.477452,0.1326253 0.258621,0 0.484084,-0.125994 0.225464,-0.1326263 0.358089,-0.3713527 0.132627,-0.2453567 0.132627,-0.5835524 z"
     id="path93689"
     style="font-weight:600;font-size:6.34997px;font-family:Poppins;-inkscape-font-specification:'Poppins Semi-Bold';letter-spacing:0.264582px;fill:#000000;fill-opacity:1;stroke:none;stroke-width:0.26458203;stroke-miterlimit:4;stroke-dasharray:none" />
  <path
     d="m 22.522652,2.3070173 q 0.41114,0 0.722811,0.1657819 0.31167,0.1591506 0.490714,0.4177709 v -0.523872 h 0.935012 v 3.7002583 q 0,0.5106082 -0.20557,0.9084852 -0.20557,0.4045093 -0.616709,0.6366043 -0.41114,0.2387254 -0.994694,0.2387254 -0.782491,0 -1.286469,-0.3647204 -0.497346,-0.3647203 -0.563659,-0.9946923 h 0.921749 q 0.07294,0.251989 0.31167,0.3978769 0.245357,0.1525192 0.590185,0.1525192 0.404508,0 0.656497,-0.2453576 0.251988,-0.2387264 0.251988,-0.7294407 V 5.4966652 q -0.179044,0.2586203 -0.497346,0.4310335 -0.31167,0.1724132 -0.716179,0.1724132 -0.46419,0 -0.848804,-0.2387253 Q 21.289234,5.6226602 21.06377,5.1916267 20.844938,4.7539618 20.844938,4.190302 q 0,-0.5570275 0.218832,-0.988061 0.225464,-0.4310336 0.603447,-0.6631286 0.384614,-0.2320951 0.855435,-0.2320951 z m 1.213525,1.8965473 q 0,-0.3381951 -0.132625,-0.5769214 -0.132625,-0.2453577 -0.358089,-0.3713527 -0.225464,-0.1326253 -0.484084,-0.1326253 -0.258621,0 -0.477453,0.1259939 -0.218832,0.1259951 -0.358089,0.3713528 -0.132626,0.2387263 -0.132626,0.5702901 0,0.3315648 0.132626,0.5835528 0.139257,0.2453576 0.358089,0.377984 0.225464,0.1326253 0.477453,0.1326253 0.25862,0 0.484084,-0.125994 0.225464,-0.1326263 0.358089,-0.3713527 0.132625,-0.2453567 0.132625,-0.5835528 z"
     id="path93691"
     style="font-weight:600;font-size:6.34997px;font-family:Poppins;-inkscape-font-specification:'Poppins Semi-Bold';letter-spacing:0.264582px;fill:#000000;fill-opacity:1;stroke:none;stroke-width:0.26458203;stroke-miterlimit:4;stroke-dasharray:none" />
  <path
     d="m 29.271087,4.1239888 q 0,0.1989395 -0.02653,0.3580901 h -2.685671 q 0.03316,0.3978769 0.278514,0.6233407 0.245357,0.2254637 0.603447,0.2254637 0.517239,0 0.736072,-0.4442962 h 1.001324 q -0.15915,0.5305033 -0.610078,0.8753297 -0.450927,0.3381951 -1.107424,0.3381951 -0.530504,0 -0.954906,-0.2320951 Q 26.088069,5.6292915 25.849343,5.198258 25.617248,4.7672234 25.617248,4.2035646 q 0,-0.5702901 0.232095,-1.0013236 0.232095,-0.4310336 0.649866,-0.6631286 0.417771,-0.2320951 0.961537,-0.2320951 0.523871,0 0.93501,0.2254638 0.417772,0.2254637 0.643236,0.6432346 0.232094,0.4111396 0.232095,0.9482731 z M 28.309551,3.8587382 q -0.0066,-0.3580901 -0.25862,-0.5702912 -0.251989,-0.2188324 -0.61671,-0.2188324 -0.344827,0 -0.583553,0.2122011 -0.232094,0.2055698 -0.285145,0.5769225 z"
     id="path93693"
     style="font-weight:600;font-size:6.34997px;font-family:Poppins;-inkscape-font-specification:'Poppins Semi-Bold';letter-spacing:0.264582px;fill:#000000;fill-opacity:1;stroke:none;stroke-width:0.26458203;stroke-miterlimit:4;stroke-dasharray:none" />
  <path
     id="path103015"
     style="font-weight:600;font-size:6.34997px;font-family:Poppins;-inkscape-font-specification:'Poppins Semi-Bold';letter-spacing:0.264582px;fill:#000000;fill-opacity:1;stroke:none;stroke-width:0.26458203;stroke-miterlimit:4;stroke-dasharray:none"
     d="m 4.1159584,2.3072304 c -0.3625106,0 -0.6831531,0.07732 -0.9616663,0.2320512 C 2.8757809,2.6940116 2.6592773,2.9151613 2.5045473,3.2025177 2.3498172,3.489873 2.2724971,3.8233855 2.2724971,4.2035792 c 0,1.2668897 -0.7209808,1.8963479 -0.7209808,1.8963479 h 2.5644421 c 0.4376648,0 0.8067556,-0.1123617 1.1073746,-0.3378254 C 5.5239509,5.5322174 5.7275814,5.240452 5.8336815,4.8867803 H 4.8320811 C 4.6861931,5.1829809 4.4408188,5.3309188 4.0959924,5.3309188 3.857266,5.3309188 3.6562274,5.255656 3.4926563,5.1053423 3.3290842,4.9550328 3.236299,4.7472919 3.2141943,4.4820403 h 2.685864 c 0.01769,-0.1061001 0.026442,-0.2251651 0.026442,-0.3577915 0,-0.358089 -0.07732,-0.674619 -0.2320533,-0.9487127 C 5.5441373,2.8970228 5.329693,2.6831133 5.0511788,2.5328048 4.7770861,2.3824953 4.4652022,2.3072304 4.1159552,2.3072304 Z m -0.026442,0.7625315 c 0.2431469,0 0.4488326,0.072673 0.6168253,0.2185619 0.1680292,0.1414674 0.254111,0.3316881 0.2584961,0.5704144 H 3.2206721 C 3.2560426,3.6111708 3.3514187,3.4188939 3.5061487,3.2818471 3.6652993,3.1403797 3.8596324,3.0697619 4.0895164,3.0697619 Z" />
</svg>
